<?xml version="1.0" encoding="UTF-8" standalone="no"?>
<!DOCTYPE svg PUBLIC "-//W3C//DTD SVG 1.1//EN" "http://www.w3.org/Graphics/SVG/1.1/DTD/svg11.dtd">
<svg width="100%" height="100%" viewBox="0 0 512.000000 512.000000" version="1.1" xmlns="http://www.w3.org/2000/svg" xmlns:xlink="http://www.w3.org/1999/xlink" xml:space="preserve" xmlns:serif="http://www.serif.com/" style="fill-rule:evenodd;clip-rule:evenodd;stroke-linejoin:round;stroke-miterlimit:2;">



<g transform="translate(0.000000,512.000000) scale(0.100000,-0.100000)"
fill="#003385" stroke="none">
<path d="M2405 4830 c-66 -12 -126 -35 -205 -79 -36 -19 -82 -45 -103 -56 -50
-27 -323 -187 -411 -242 -38 -23 -73 -43 -77 -43 -9 0 -164 -90 -234 -135 -27
-18 -95 -56 -150 -85 -55 -29 -122 -68 -150 -85 -27 -18 -115 -70 -195 -115
-80 -45 -152 -88 -160 -95 -109 -96 -132 -123 -168 -193 -82 -158 -77 -80 -77
-1142 l0 -945 23 -65 c21 -58 76 -167 92 -180 3 -3 13 -17 22 -31 25 -39 147
-127 298 -214 74 -43 158 -92 185 -110 28 -17 77 -45 110 -62 33 -17 94 -51
135 -76 41 -25 125 -73 185 -108 61 -34 136 -77 168 -95 67 -39 87 -42 87 -14
0 25 38 189 49 215 5 11 24 90 42 175 17 85 59 274 91 420 127 561 139 618
162 722 l22 108 -576 2 -577 3 199 225 c109 124 202 232 205 240 4 8 19 25 33
37 15 12 47 48 71 80 24 32 296 346 604 698 308 352 578 664 600 693 21 28 42
52 46 52 4 0 33 33 65 73 32 39 92 110 133 156 74 84 74 84 53 101 -47 38
-222 129 -287 150 -79 24 -231 34 -310 20z"/>
<path d="M3251 4408 c-12 -51 -48 -214 -81 -363 -116 -528 -249 -1121 -259
-1155 -6 -19 -11 -41 -11 -47 0 -10 120 -13 575 -13 316 0 575 -2 575 -5 0 -3
-107 -128 -238 -278 -200 -228 -521 -598 -866 -997 -41 -47 -107 -123 -148
-170 -597 -684 -768 -882 -768 -889 0 -13 100 -74 205 -126 112 -55 228 -80
331 -72 117 10 214 48 389 150 88 52 268 156 400 232 230 132 304 175 515 298
52 31 149 86 215 123 308 172 393 255 462 451 l28 78 0 935 0 935 -24 79 c-41
133 -137 258 -261 342 -25 17 -92 57 -150 89 -58 32 -136 77 -175 100 -64 39
-136 80 -542 314 -78 44 -144 81 -146 81 -3 0 -15 -42 -26 -92z"/>
</g>

<path transform="translate(75.000000,272.000000) scale(0.300000,0.30000)"
fill="#FFF" stroke="none" d="M96.429,150c-11.775,0 -21.429,9.66 -21.429,21.442l0,82.116c0,11.782 9.654,21.442 21.429,21.442l157.142,0c11.775,0 21.429,-9.66 21.429,-21.442l0,-82.116c0,-11.782 -9.654,-21.442 -21.429,-21.442l-157.142,0Zm-0,14.295l157.142,-0c0.503,-0 0.893,0.167 1.34,0.279l-79.911,45.33l-79.911,-45.33c0.447,-0.112 0.837,-0.279 1.34,-0.279Zm-7.143,13.625l85.714,49.406l85.714,-49.406l0,75.638c0,4.02 -3.125,7.147 -7.143,7.147l-157.142,0c-4.018,0 -7.143,-3.127 -7.143,-7.147l-0,-75.638Z" style="fill:#FFF;fill-opacity:0.9;fill-rule:nonzero;"/>
</svg>
